<svg width="512" height="512" viewBox="0 0 512 512" fill="none" xmlns="http://www.w3.org/2000/svg">
<path d="M450.057 256.004C490.07 227.42 503.205 172.223 477.672 128C452.142 83.777 397.773 67.552 353.011 87.913C348.174 38.635 306.498 0 255.97 0C205.442 0 163.766 38.635 158.928 87.912C114.166 67.554 59.7979 83.777 34.2679 128C9.0009 171.761 21.6239 227.173 61.8869 256C21.6239 284.827 9.0009 340.239 34.2679 384C59.7969 428.221 114.164 444.448 158.929 424.087C163.767 473.365 205.442 512 255.97 512C306.498 512 348.174 473.365 353.012 424.088C397.772 444.446 452.143 428.223 477.673 384C502.939 340.238 490.32 284.829 450.057 256.004ZM255.97 353.51C202.202 353.51 158.46 309.768 158.46 256C158.46 202.233 202.202 158.49 255.97 158.49C309.738 158.49 353.48 202.232 353.48 256C353.48 309.768 309.738 353.51 255.97 353.51Z" fill="#FF6F79"/>
</svg>
